# xmcd
# 
# Track frame offsets:
#     150
#     11808
#     23883
#     36340
#     49585
#     61952
#     72980
#     86675
#     97406
#     112607
# 
# Disc length: 1658
# 
# Revision: 1
# Processed by: cddbd v1.5.2PL0 Copyright (c) Steve Scherf et al.
# Submitted via: fre:ac v1.0.17
# 
DISCID=8206780a
DTITLE=Los Plateros - Grandes Exitos De Los Plateros
DYEAR=0
DGENRE=Soul
TTITLE0=Only You
TTITLE1=Pretender
TTITLE2=Twilight time
TTITLE3=My prayer
TTITLE4=The magic touch
TTITLE5=Hay humo en tus ojos
TTITLE6=I'm sorry
TTITLE7=Red sails in the sunset
TTITLE8=The wonder of you
TTITLE9=Heaven on earth
EXTD=
EXTT0=
EXTT1=
EXTT2=
EXTT3=
EXTT4=
EXTT5=
EXTT6=
EXTT7=
EXTT8=
EXTT9=
PLAYORDER=
